<svg width="1800" height="266" viewBox="0 0 1800 266" fill="none" xmlns="http://www.w3.org/2000/svg">
<path d="M1740.98 117.939V58.9121H1563.93C1531.34 58.9121 1504.92 85.3432 1504.92 117.939V132.696C1504.92 165.292 1531.34 191.723 1563.93 191.723H1681.97V206.48H1504.92V265.507H1674.59C1711.26 265.507 1740.98 235.781 1740.98 199.102C1740.98 162.423 1711.26 132.696 1674.59 132.696H1563.93V117.939H1740.98Z" fill="black"/>
<path d="M1050.82 58.9121C1024.56 58.9121 1003.28 80.1947 1003.28 106.462V265.507H1062.29V191.723H1180.33V265.507H1239.34V58.9121H1050.82ZM1180.33 132.696H1062.29V117.939H1180.33V132.696Z" fill="black"/>
<path d="M1442.62 58.9121H1254.1V265.507H1442.62C1468.89 265.507 1490.16 244.225 1490.16 217.958V106.462C1490.16 80.1947 1468.89 58.9121 1442.62 58.9121ZM1431.15 206.48H1313.11V117.939H1431.15V206.48Z" fill="black"/>
<path d="M737.705 117.939V58.9121H549.181C522.918 58.9121 501.64 80.1947 501.64 106.462V217.958C501.64 244.225 522.918 265.507 549.181 265.507H737.705V180.246C737.705 153.979 716.427 132.696 690.164 132.696H575.41V191.723H678.689V206.48H560.656V117.939H737.705Z" fill="black"/>
<path d="M236.066 125.318C236.066 88.6389 206.344 58.9121 169.672 58.9121H0V265.507H169.672C206.344 265.507 236.066 235.781 236.066 199.102C236.066 185.443 231.934 172.769 224.885 162.21C231.951 151.65 236.066 138.976 236.066 125.318ZM59.0164 117.939H177.049V132.696H59.0164V117.939ZM177.049 206.48H59.0164V191.723H177.049V206.48Z" fill="black"/>
<path d="M486.885 117.939V58.9121H298.36C272.098 58.9121 250.819 80.1947 250.819 106.462V217.958C250.819 244.225 272.098 265.507 298.36 265.507H486.885V206.48H309.836V191.723H486.885V132.696H309.836V117.939H486.885Z" fill="black"/>
<path d="M988.525 117.939V58.9121H800C773.738 58.9121 752.459 80.1947 752.459 106.462V217.958C752.459 244.225 773.738 265.507 800 265.507H988.525V206.48H811.475V191.723H988.525V132.696H811.475V117.939H988.525Z" fill="black"/>
<path d="M1740.98 29.4644C1740.98 12.6089 1753.16 0 1770.54 0C1787.92 0 1800 12.0678 1800 29.4644C1800 46.861 1787.93 58.9288 1770.54 58.9288C1753.15 58.9288 1740.98 46.861 1740.98 29.4644ZM1770.54 51.7472C1782.93 51.7472 1792.16 42.6143 1792.16 29.4644C1792.16 16.3145 1783.36 7.29642 1770.54 7.29642C1757.72 7.29642 1748.8 16.3145 1748.8 29.4644C1748.8 42.6143 1757.72 51.7472 1770.54 51.7472ZM1759.03 15.9865H1773.7C1779.36 15.9865 1783.26 19.3642 1783.26 24.0372C1783.26 27.5132 1781.08 30.235 1777.72 31.3172C1779.46 31.7599 1780.77 32.7273 1781.31 34.5801L1784.03 42.8439H1777.18L1775.23 36.105C1774.9 34.908 1773.92 34.2522 1772.62 34.2522H1765.67V42.8439H1759.05V15.9865H1759.03ZM1773.92 28.8085C1775.98 28.8085 1777.07 27.0705 1777.07 25.3325C1777.07 23.5945 1775.98 21.8565 1773.92 21.8565H1765.66V28.8085H1773.92Z" fill="black"/>
</svg>
